<?xml version="1.0" encoding="UTF-8" standalone="no"?>
<!DOCTYPE svg PUBLIC "-//W3C//DTD SVG 1.1//EN" "http://www.w3.org/Graphics/SVG/1.1/DTD/svg11.dtd"><svg width="291" height="206" viewBox="0 0 291 206" version="1.1" xmlns="http://www.w3.org/2000/svg" xmlns:xlink="http://www.w3.org/1999/xlink" xml:space="preserve" xmlns:serif="http://www.serif.com/" style="fill-rule:evenodd;clip-rule:evenodd;stroke-linejoin:round;stroke-miterlimit:1.41421;">
  <g id="Ebene_1-2">
    <path d="M219.58,139.03l0,59.98l-213.37,0l0,-192.8l213.37,0l0,58.27" style="fill:#fff;fill-rule:nonzero;" />
    <path d="M225.79,135.38l-12.42,0l0,57.29l12.42,12.54l0,-69.83Z" style="fill:#c1282e;fill-rule:nonzero;" />
    <path d="M213.36,12.43l12.43,-12.38l0,-0.05l-225.76,0l12.4,12.43l200.93,0Z" style="fill:#999;fill-rule:nonzero;" />
    <path d="M0,0l0,205.22l225.79,0l0,-0.01l-12.42,-12.54l0,0.13l-200.94,0l0,-180.37l-12.4,-12.43l-0.03,0Z" style="fill:#999;fill-rule:nonzero;" />
    <path d="M225.79,68.12l0,-68.07l-12.43,12.38l0.01,0l0,55.69l12.42,0Z" style="fill:#f9b03d;fill-rule:nonzero;" />
    <path d="M50.42,66.06l6,0l2.9,12.48l3.34,-12.48l5.24,0l3.34,12.48l0.05,0l2.9,-12.48l6,0l-5.59,18.48l-6.08,0l-3.21,-12l-3.21,12l-6.1,0l-5.58,-18.48Z" style="fill:#1d1d1b;fill-rule:nonzero;" />
    <rect x="95" y="66.06" width="6.16" height="18.48" style="fill:#1d1d1b;fill-rule:nonzero;" />
    <path d="M117.93,66.06l6.17,0l0,14.18l11.26,0l0,4.3l-17.43,0l0,-18.48Z" style="fill:#1d1d1b;fill-rule:nonzero;" />
    <path d="M150.55,66.06l13.36,0c5.72,0 8.8,3.08 8.8,9.24c0,7.28 -4.3,9.24 -9.6,9.24l-12.56,0l0,-18.48Zm6.16,14.34l5.15,0c3.53,0 4.48,-2.59 4.48,-5.13c0,-3.44 -1.68,-5.07 -5,-5.07l-4.66,0l0.03,10.2Z" style="fill:#1d1d1b;fill-rule:nonzero;" />
    <path d="M53.13,104.5l3,0l0,26.5l18.65,0l0,2.79l-21.65,0l0,-29.29Z" style="fill:#1d1d1b;fill-rule:nonzero;" />
    <path d="M98.51,104.5l23.32,0l0,2.79l-20.28,0l0,9.94l19.55,0l0,2.77l-19.55,0l0,11l20.61,0l0,2.79l-23.65,0l0,-29.29Z" style="fill:#1d1d1b;fill-rule:nonzero;" />
    <path d="M155.55,119l-11.42,-14.5l4.07,0l9.53,12.07l9.81,-12.07l3.78,0l-11.5,14.29l11.87,15l-4,0l-10,-12.61l-10.1,12.61l-3.9,0l11.86,-14.79Z" style="fill:#c1282e;fill-rule:nonzero;" />
    <path d="M262.92,76.67c0.4,0.86 3.31,7 6.85,9.59c0.818,0.626 1.748,1.091 2.74,1.37c1.35,0.297 2.75,0.297 4.1,0c2.766,-0.284 5.511,-0.742 8.22,-1.37c1.393,-0.384 2.765,-0.841 4.11,-1.37c-0.3,0.67 -0.76,1.62 -1.37,2.74c-1.63,2.93 -2.44,4.4 -4.11,5.47c-1.249,0.762 -2.654,1.23 -4.11,1.37c-0.91,0.117 -1.83,0.117 -2.74,0l0,5.53l-1.36,2.74l-0.59,1l-0.06,3.74l1.2,4c0,0 1,2.39 1.41,3.53c0.29,0.959 0.523,1.934 0.7,2.92c0.163,0.43 0.211,0.895 0.14,1.35c0,1 -0.46,3.39 -0.46,3.39c1.194,0.514 2.471,0.808 3.77,0.87c1.609,-0.249 3.19,-0.654 4.72,-1.21c0.13,0 2.05,-1.3 2.05,-1.3l0.38,0.46l-0.34,1.55c0,0 -0.63,2.72 -1.75,3.47c-1.12,0.75 -4.31,2.51 -4.69,3.56c-0.38,1.05 -1.5,4 -1.46,5.1c0.212,1.459 0.547,2.897 1,4.3c0.17,0.55 0.71,0.92 0.5,1.34c-0.21,0.42 -1,1.76 -1,1.76c-0.476,0.683 -0.91,1.394 -1.3,2.13c-0.166,0.638 -0.432,1.246 -0.79,1.8c-0.337,0.334 -0.753,0.579 -1.21,0.71c-0.17,0 -1.47,-0.38 -1.63,-0.38c-0.16,0 -1.13,0 -1.34,0c-0.21,0 -2.51,0.29 -2.8,0.29c-0.29,0 -4.9,0 -5.9,-0.5c-1,-0.5 -6.56,-5.31 -7.15,-6.69c-1.346,-2.498 -2.926,-4.862 -4.72,-7.06c-0.395,-0.416 -0.816,-0.806 -1.26,-1.17l-2.84,3.09c-0.999,1.13 -1.778,2.435 -2.3,3.85c-0.54,1.88 -0.5,3 0.13,4c0.63,1 2.17,2.13 3,3.22c0.495,0.678 0.943,1.39 1.34,2.13l0.29,1.59l-0.41,2l-6.4,-0.21l-9.58,-0.58c-0.431,-0.605 -0.581,-1.367 -0.41,-2.09c0.858,-1.893 1.892,-3.701 3.09,-5.4c0.42,-0.46 0.42,-3.72 0.63,-4.68c0.21,-0.96 0.79,-5.44 1,-6.11c0.006,-1.897 -0.091,-3.793 -0.29,-5.68l-0.5,-3.72l-3.14,-5.4l-2.63,-1.71l-0.46,1c0,0 0.75,3 0.84,3.26l1.42,4.39c0,0 1.55,6.88 1.55,7.35c0,0.47 0.08,4.39 -0.05,4.81c-0.13,0.42 -1.25,4.31 -1.29,4.47c-0.04,0.16 -1,2.35 -1,2.51c-0.66,0.914 -1.414,1.755 -2.25,2.51c-0.46,0.34 -2.72,2.47 -3.43,2.55c-1.045,0.121 -2.104,0.008 -3.1,-0.33c-1.91,-2.008 -3.587,-4.226 -5,-6.61c-0.364,-1.377 -0.422,-2.818 -0.17,-4.22c0.992,-1.084 2.068,-2.087 3.22,-3l0.88,-2l-4.14,-5.81c0,0 -3.64,-5.39 -3.76,-5.52c-0.12,-0.13 -2.72,-2.26 -2.93,-2.46c-0.21,-0.2 -1.8,-2 -1.8,-2.85c0,-0.85 0.5,-3.34 1.09,-3.76c0.59,-0.42 2.55,-2.51 2.55,-2.51l-8.57,-41.48c0,0 7.52,-3 9.36,-2.59c1.84,0.41 6.61,0.84 9.54,1.09c2.93,0.25 4.68,-1.34 8,-2c3.32,-0.66 5.44,-2.17 8.7,-2c2.803,-0.013 5.561,0.708 8,2.09c2.67,1.5 5.18,4 7.11,5.43c1.93,1.43 4.96,6.35 4.96,6.35Z" style="fill:#fff;fill-rule:nonzero;" />
    <path d="M206.72,68.66c3.114,-1.771 6.618,-2.747 10.2,-2.84c3.41,-0.1 6.69,1 10.08,1c3.39,0 6.28,-1.47 9.35,-2.86c2.821,-1.344 5.98,-1.814 9.07,-1.35c14,2.26 19.5,18.2 24.79,29.3" style="fill:#fff;fill-rule:nonzero;" />
    <path d="M206.72,68.66c2.825,-1.923 6.082,-3.119 9.48,-3.48c3.49,-0.4 6.9,0.46 10.06,0.58c3.16,0.12 5.91,-1.14 8.94,-2.65c3.213,-1.688 6.878,-2.318 10.47,-1.8c3.532,0.595 6.853,2.09 9.64,4.34c2.65,2.235 4.911,4.894 6.69,7.87c3.62,5.82 5.83,12.17 8.17,18.43c-3.37,-5.79 -6.16,-11.92 -9.95,-17.25c-1.818,-2.65 -4.027,-5.01 -6.55,-7c-2.456,-1.925 -5.36,-3.198 -8.44,-3.7c-3.061,-0.469 -6.194,0.039 -8.95,1.45c-1.558,0.729 -3.158,1.367 -4.79,1.91c-1.735,0.544 -3.564,0.717 -5.37,0.51c-3.5,-0.34 -6.62,-1.44 -9.84,-1.37c-3.304,0.035 -6.562,0.771 -9.56,2.16Z" style="fill:#010101;fill-rule:nonzero;" />
    <path d="M278.27,94.54c1.254,0.141 2.522,-0.096 3.64,-0.68c1.049,-0.612 1.956,-1.441 2.66,-2.43c0.816,-0.914 1.521,-1.921 2.1,-3c0.605,-1.114 1.153,-2.259 1.64,-3.43l0.68,1c-3.55,0.27 -7.16,1.51 -9.53,4.1c-1.193,1.261 -2.019,2.824 -2.39,4.52c-0.33,1.57 0.5,3.47 -0.11,5.61c-0.334,0.907 -0.746,1.783 -1.23,2.62c-0.38,0.739 -0.572,1.56 -0.56,2.39c0.057,1.779 0.433,3.534 1.11,5.18l1,2.61c0.307,0.896 0.538,1.816 0.69,2.75c0.4,1.859 0.4,3.781 0,5.64c0.014,-1.838 -0.325,-3.661 -1,-5.37c-0.29,-0.87 -0.73,-1.68 -1,-2.55l-0.97,-2.7c-0.736,-1.796 -1.139,-3.71 -1.19,-5.65c-0.01,-1.042 0.23,-2.07 0.7,-3c0.449,-0.77 0.834,-1.576 1.15,-2.41c0.51,-1.5 -0.27,-3.34 0.08,-5.46c0.411,-1.953 1.352,-3.756 2.72,-5.21c2.71,-2.94 6.66,-4.24 10.43,-4.54l1.13,-0.09l-0.44,1c-0.964,2.469 -2.296,4.779 -3.95,6.85c-0.958,0.981 -2.128,1.73 -3.42,2.19c-1.27,0.457 -2.657,0.478 -3.94,0.06Z" style="fill:#010101;fill-rule:nonzero;" />
    <path d="M271.15,86.65c0.329,0.654 0.98,1.088 1.71,1.14c0.715,0.049 1.434,-0.032 2.12,-0.24c1.37,-0.48 2.92,-0.94 4.37,-1.35c1.474,-0.442 2.982,-0.757 4.51,-0.94c1.535,-0.238 3.096,-0.272 4.64,-0.1l0,0.14l-4.41,1.18c-1.46,0.4 -2.95,0.71 -4.44,1c-0.75,0.14 -1.5,0.29 -2.23,0.45c-0.73,0.16 -1.44,0.38 -2.26,0.5c-0.804,0.145 -1.629,0.114 -2.42,-0.09c-0.806,-0.203 -1.453,-0.809 -1.71,-1.6l0.12,-0.09Z" style="fill:#010101;fill-rule:nonzero;" />
    <path d="M276.61,121.78c1.14,0.702 2.462,1.05 3.8,1c1.27,0.121 2.551,-0.025 3.76,-0.43c1.234,-0.432 2.385,-1.075 3.4,-1.9c0.404,-0.305 0.974,-0.28 1.35,0.06c0.19,0.17 0.308,0.406 0.33,0.66c0,0.22 0,0.23 0,0.35c-0.013,0.383 -0.056,0.764 -0.13,1.14c-0.15,0.738 -0.403,1.452 -0.75,2.12c-0.671,1.32 -1.619,2.48 -2.78,3.4c-0.585,0.464 -1.223,0.857 -1.9,1.17c-0.516,0.235 -0.952,0.618 -1.25,1.1c-0.677,1.088 -1.11,2.309 -1.27,3.58c-0.428,1.287 -0.568,2.653 -0.41,4c-0.392,-0.607 -0.658,-1.288 -0.78,-2c-0.163,-0.715 -0.227,-1.448 -0.19,-2.18c0.219,-1.469 0.736,-2.878 1.52,-4.14c0.44,-0.688 1.069,-1.237 1.81,-1.58c0.582,-0.26 1.127,-0.596 1.62,-1c1.005,-0.795 1.828,-1.798 2.41,-2.94c0.289,-0.558 0.498,-1.154 0.62,-1.77c0.066,-0.299 0.103,-0.604 0.11,-0.91c-0.004,-0.053 -0.004,-0.107 0,-0.16c0.012,0.078 0.051,0.149 0.11,0.2c0.11,0.1 0.28,0.1 0.39,0c-1.129,0.916 -2.408,1.63 -3.78,2.11c-1.404,0.492 -2.907,0.64 -4.38,0.43c-1.431,-0.336 -2.705,-1.151 -3.61,-2.31Z" style="fill:#010101;fill-rule:nonzero;" />
    <path d="M281.14,139.33c0.493,0.182 0.842,0.628 0.9,1.15c0.055,0.503 -0.069,1.009 -0.35,1.43c-0.27,0.38 -0.63,0.66 -0.89,1c-0.266,0.33 -0.46,0.711 -0.57,1.12c-0.115,0.876 -0.39,1.723 -0.81,2.5c-0.263,0.458 -0.676,0.812 -1.17,1c-0.529,0.165 -1.107,-0.049 -1.4,-0.52l0.06,-0.08c1,0.26 1.18,-0.29 1.57,-1c0.38,-0.751 0.797,-1.481 1.25,-2.19c0.294,-0.326 0.558,-0.677 0.79,-1.05c0.177,-0.385 0.314,-0.787 0.41,-1.2c0.365,-0.652 0.417,-1.436 0.14,-2.13l0.07,-0.03Z" style="fill:#010101;fill-rule:nonzero;" />
    <path d="M247.33,113.85c0.14,2 0.19,4.09 0.47,6.1c0.191,1.995 0.659,3.954 1.39,5.82c1.31,3.8 5.07,5.82 7.59,9.33c2.36,3.48 3.64,7.49 6.89,9.75c1.643,1.101 3.539,1.765 5.51,1.93c2.024,0.199 4.06,0.242 6.09,0.13c-2.024,0.381 -4.081,0.562 -6.14,0.54c-2.114,-0.05 -4.18,-0.642 -6,-1.72c-1.778,-1.187 -3.254,-2.772 -4.31,-4.63c-1.1,-1.77 -2,-3.61 -3.12,-5.22c-1.209,-1.581 -2.547,-3.059 -4,-4.42c-1.542,-1.478 -2.711,-3.302 -3.41,-5.32c-1.45,-4.03 -1.29,-8.24 -0.96,-12.29Z" style="fill:#010101;fill-rule:nonzero;" />
    <path d="M263.64,139c0.314,0.201 0.603,0.44 0.86,0.71c0.12,0.3 0.25,0.59 0.38,0.87c0.217,0.531 0.561,1.001 1,1.37c0.515,0.24 1.086,0.333 1.65,0.27c0.252,0.018 0.495,0.097 0.71,0.23c0.243,0.182 0.399,0.458 0.43,0.76c-0.104,0.385 -0.316,0.732 -0.61,1c-0.13,-0.35 -0.19,-0.72 -0.39,-0.89c0,-0.09 0,-0.09 0,-0.08c-0.067,-0.027 -0.138,-0.044 -0.21,-0.05c-0.742,0.06 -1.485,-0.096 -2.14,-0.45c-0.579,-0.46 -1.032,-1.059 -1.32,-1.74l-0.4,-0.92c-0.005,-0.36 0.008,-0.721 0.04,-1.08Z" style="fill:#010101;fill-rule:nonzero;" />
    <path d="M257.5,119.53c0.197,-0.242 0.467,-0.414 0.77,-0.49c0.274,0.064 0.537,0.168 0.78,0.31c0.436,0.268 0.824,0.606 1.15,1c0.303,0.377 0.574,0.778 0.81,1.2c0.11,0.21 0.22,0.42 0.32,0.64c-0.038,0.283 -0.105,0.561 -0.2,0.83l-0.72,-0.41c-0.09,-0.19 -0.19,-0.38 -0.29,-0.57c-0.206,-0.352 -0.44,-0.686 -0.7,-1c-0.248,-0.304 -0.546,-0.564 -0.88,-0.77c-0.148,-0.091 -0.31,-0.155 -0.48,-0.19c-0.149,-0.219 -0.339,-0.405 -0.56,-0.55Z" style="fill:#010101;fill-rule:nonzero;" />
    <path d="M258.54,120.38c0.07,0 0.2,0.15 0.3,0.2c0.088,0.06 0.187,0.104 0.29,0.13c0.08,0 0.06,0.1 0.11,0.12l0.07,0l-0.11,0c-0.145,-0.025 -0.294,0.028 -0.39,0.14c-0.157,0.137 -0.202,0.364 -0.11,0.55l0,0.07l-0.08,-0.09l-0.16,-0.15l-0.12,-0.09l0.07,0c0.15,0.033 0.307,-0.017 0.41,-0.13c0.076,-0.073 0.12,-0.174 0.12,-0.28l-0.17,-0.29c0.168,0.141 0.381,0.215 0.6,0.21l-0.1,1l-0.56,-0.12l0,-1l0.94,0.37c0,0.07 -0.06,0.13 -0.08,0.2c-0.02,0.07 -0.12,0.11 -0.19,0.15l-0.25,-0.56c0.14,0.176 0.271,0.359 0.39,0.55c-0.206,0.088 -0.416,0.165 -0.63,0.23c-0.018,0.007 -0.038,0.011 -0.058,0.011c-0.069,0 -0.131,-0.045 -0.152,-0.111l0,-0.41c0,-0.08 -0.06,-0.19 0,-0.24c0.06,-0.05 0.06,-0.13 0.1,-0.2c0.092,-0.152 0.258,-0.244 0.435,-0.244c0.28,0 0.51,0.23 0.51,0.51c0,0.041 -0.005,0.083 -0.015,0.124c-0.111,0.317 -0.374,0.558 -0.7,0.64l0,-1l0.57,0.12c0.228,0.05 0.393,0.254 0.393,0.488c0,0.038 -0.005,0.075 -0.013,0.112c-0.049,0.223 -0.242,0.387 -0.47,0.4c-0.468,0.017 -0.925,-0.144 -1.28,-0.45c-0.115,-0.078 -0.192,-0.202 -0.21,-0.34c-0.018,-0.138 0,-0.11 0,-0.17c0.004,-0.146 0.057,-0.287 0.15,-0.4c0.14,-0.143 0.345,-0.203 0.54,-0.16c0.066,0.017 0.129,0.04 0.19,0.07c0.113,0.063 0.217,0.14 0.31,0.23l0.22,0.21l0.17,0.17l0.05,0.08c0.027,0.064 0.04,0.132 0.04,0.201c0,0.285 -0.234,0.52 -0.52,0.52c-0.01,0 -0.02,0 -0.03,-0.001l-0.12,0c-0.172,-0.059 -0.328,-0.155 -0.46,-0.28c-0.11,-0.13 -0.26,-0.22 -0.28,-0.38c-0.007,-0.156 0.014,-0.311 0.06,-0.46c0.05,-0.02 0.1,-0.21 0.22,-0.25Z" style="fill:#010101;fill-rule:nonzero;" />
    <path d="M270.47,133.58c0.287,0.262 0.629,0.456 1,0.57c0.265,0.228 0.562,0.416 0.88,0.56c0.699,0.309 1.421,0.563 2.16,0.76c0.66,0.14 1.52,0.25 2.28,0.38l1.19,0.21c0.34,0.26 0.78,0.43 1,0.84c-0.412,0 -0.822,0.053 -1.22,0.16l-1.15,-0.21c-0.8,-0.14 -1.52,-0.21 -2.4,-0.41c-0.795,-0.208 -1.571,-0.482 -2.32,-0.82c-0.398,-0.186 -0.771,-0.421 -1.11,-0.7c-0.254,-0.398 -0.363,-0.871 -0.31,-1.34Z" style="fill:#010101;fill-rule:nonzero;" />
    <path d="M241.41,109.82c1.118,5.52 3.146,10.815 6,15.67c-4.046,-4.188 -6.214,-9.851 -6,-15.67Z" style="fill:#010101;fill-rule:nonzero;" />
    <path d="M235.94,115c0.153,0.661 0.363,1.307 0.63,1.93c0.122,0.639 0.302,1.265 0.54,1.87c0.46,1.228 1.1,2.381 1.9,3.42c0.763,1.039 1.738,1.905 2.86,2.54c0.547,0.29 1.138,0.486 1.75,0.58c0.29,0.11 0.6,0.16 0.93,0.25l1,0c-0.324,0.179 -0.658,0.339 -1,0.48c-0.35,0.07 -0.72,0.18 -1.1,0.22c-0.734,-0.105 -1.444,-0.335 -2.1,-0.68c-1.249,-0.71 -2.338,-1.67 -3.2,-2.82c-0.84,-1.124 -1.514,-2.363 -2,-3.68c-0.25,-0.65 -0.448,-1.318 -0.59,-2c-0.001,-0.72 0.128,-1.435 0.38,-2.11Z" style="fill:#010101;fill-rule:nonzero;" />
    <path d="M240,127.1c0.43,3.68 -0.71,7 -0.92,10.57c-0.09,1.59 0.17,3.23 -0.41,4.76c-0.58,1.53 -1.91,2.7 -2.54,4.24c-0.31,0.73 -1.19,3.35 -0.39,4.06c0.8,0.71 3.93,0.32 4.83,0.37c3.75,0.25 7.67,0.82 11.42,0.55" style="fill:#fff;fill-rule:nonzero;" />
    <path d="M240,127.1c0.76,3.4 -0.07,7 -0.2,10.23c-0.09,1.58 0.31,3.36 -0.31,5.31c-0.62,1.95 -2.1,3.09 -2.57,4.44c-0.47,1.35 -1.06,3.59 -0.15,3.11c0.806,0.104 1.618,0.151 2.43,0.14c0.43,0 0.84,0 1.33,0l1.3,0.14c3.41,0.38 6.73,1 10.16,1.15c-3.405,0.446 -6.848,0.523 -10.27,0.23l-1.26,0l-1.23,0c-0.896,0.065 -1.794,0.065 -2.69,0c-0.276,-0.029 -0.548,-0.089 -0.81,-0.18l-0.24,-0.1l-0.3,-0.2c-0.16,-0.149 -0.292,-0.325 -0.39,-0.52c-0.236,-0.544 -0.313,-1.144 -0.22,-1.73c0.113,-0.929 0.344,-1.84 0.69,-2.71c0.78,-1.86 2.17,-3 2.64,-4.34c0.47,-1.34 0.28,-3.06 0.51,-4.86c0.34,-3.5 1.58,-6.66 1.58,-10.11Z" style="fill:#010101;fill-rule:nonzero;" />
    <path d="M252.31,149.75c-0.32,-1.451 -1.111,-2.756 -2.25,-3.71c-0.52,-0.39 -1.19,-0.73 -1.92,-1.19c-0.829,-0.521 -1.449,-1.318 -1.75,-2.25c-0.371,-1.758 -0.01,-3.594 1,-5.08c0.819,-1.401 1.899,-2.633 3.18,-3.63c-0.69,1.45 -1.4,2.83 -1.93,4.23c-0.597,1.243 -0.789,2.642 -0.55,4c0.162,0.568 0.515,1.063 1,1.4c0.676,0.44 1.315,0.935 1.91,1.48c1.182,1.275 1.672,3.049 1.31,4.75Z" style="fill:#010101;fill-rule:nonzero;" />
    <path d="M223.75,133.61c-1.67,1.66 -3.6,3.65 -3.52,6.18c0.07,2.13 1.92,4.67 3,6.46c0.97,1.934 3.091,3.029 5.23,2.7c2.23,-0.37 3.1,-2.38 4.95,-3.36c2.46,-1.3 1.7,-2.72 2.52,-5.09c0.93,-2.68 1.76,-4.5 1.39,-7.44c-0.584,-5.451 -2.042,-10.773 -4.32,-15.76" style="fill:#fff;fill-rule:nonzero;" />
    <path d="M223.75,133.61c-0.727,0.925 -1.376,1.908 -1.94,2.94c-0.524,0.908 -0.761,1.954 -0.68,3c0.06,1.039 0.372,2.048 0.91,2.94c0.52,1 1.16,2 1.8,3c0.487,0.917 1.222,1.679 2.12,2.2c0.857,0.444 1.855,0.537 2.78,0.26c0.974,-0.405 1.837,-1.036 2.52,-1.84c0.469,-0.462 0.993,-0.865 1.56,-1.2c0.442,-0.223 0.847,-0.513 1.2,-0.86c0.279,-0.344 0.456,-0.76 0.51,-1.2c0.11,-0.52 0.18,-1.15 0.33,-1.78c0.35,-1.31 0.8,-2.31 1.14,-3.43c0.352,-1.041 0.538,-2.131 0.55,-3.23c-0.054,-1.137 -0.18,-2.269 -0.38,-3.39c-0.357,-2.307 -0.851,-4.592 -1.48,-6.84c-0.374,-2.338 -0.926,-4.645 -1.65,-6.9c1.333,2.018 2.459,4.165 3.36,6.41c0.642,2.303 1.153,4.64 1.53,7c0.214,1.213 0.348,2.439 0.4,3.67c-0.013,1.278 -0.226,2.547 -0.63,3.76c-0.35,1.15 -0.86,2.33 -1.11,3.32c-0.12,0.52 -0.19,1.07 -0.31,1.71c-0.121,0.737 -0.439,1.428 -0.92,2c-0.472,0.505 -1.031,0.922 -1.65,1.23c-0.45,0.286 -0.866,0.621 -1.24,1c-0.879,0.993 -1.984,1.761 -3.22,2.24c-1.371,0.409 -2.85,0.269 -4.12,-0.39c-1.174,-0.666 -2.141,-1.646 -2.79,-2.83c-0.62,-1 -1.3,-2 -1.88,-3.1c-0.68,-1.151 -1.065,-2.454 -1.12,-3.79c0.176,-1.314 0.756,-2.541 1.66,-3.51c0.829,-0.892 1.751,-1.693 2.75,-2.39Z" style="fill:#010101;fill-rule:nonzero;" />
    <path d="M215.9,115.17c0.781,-0.474 1.589,-0.901 2.42,-1.28c0.87,-0.22 1.75,-0.42 2.64,-0.59c1.789,-0.34 3.611,-0.471 5.43,-0.39c1.85,0.08 3.666,0.529 5.34,1.32c0.4,0.23 0.82,0.44 1.21,0.69c0.39,0.25 0.76,0.54 1.11,0.85c0.35,0.31 0.56,0.76 0.81,1.15c0.25,0.39 0.43,0.82 0.62,1.23c-0.36,-0.3 -0.7,-0.59 -1,-0.88c-0.3,-0.29 -0.73,-0.49 -1.08,-0.73l-1,-0.77c-0.36,-0.23 -0.74,-0.42 -1.1,-0.63c-1.55,-0.738 -3.235,-1.15 -4.95,-1.21c-1.739,-0.081 -3.481,0.043 -5.19,0.37c-0.86,0.16 -1.71,0.35 -2.56,0.58c-0.91,0.12 -1.79,0.21 -2.7,0.29Z" style="fill:#010101;fill-rule:nonzero;" />
    <path d="M257.86,95.61c-0.058,-2.174 0.545,-4.316 1.73,-6.14c0.581,-0.927 1.273,-1.78 2.06,-2.54c0.821,-0.891 1.978,-1.399 3.19,-1.4c0.353,0.023 0.696,0.129 1,0.31c0.325,0.213 0.563,0.536 0.67,0.91c0.129,0.628 0.048,1.282 -0.23,1.86c-0.245,0.539 -0.583,1.03 -1,1.45c-0.376,0.392 -0.781,0.756 -1.21,1.09c-1.698,1.297 -3.524,2.416 -5.45,3.34c1.66,-1.32 3.43,-2.51 4.94,-3.93c0.37,-0.36 0.73,-0.72 1.07,-1.1c0.307,-0.361 0.554,-0.77 0.73,-1.21c0.178,-0.384 0.234,-0.813 0.16,-1.23c-0.08,-0.3 -0.34,-0.44 -0.78,-0.48c-0.933,0.024 -1.817,0.425 -2.45,1.11c-0.758,0.685 -1.448,1.442 -2.06,2.26c-1.236,1.682 -2.049,3.637 -2.37,5.7Z" style="fill:#010101;fill-rule:nonzero;" />
    <path d="M256.52,90.51c0.655,-1.266 1.622,-2.343 2.81,-3.13c0.839,-0.707 1.903,-1.093 3,-1.09c0.183,-0.01 0.367,-0.01 0.55,0l0.3,0.06c0.05,0 0.11,0 0.2,0.14c0.019,0.082 -0.029,0.166 -0.11,0.19l-0.07,-0.07c0,0 0,-0.09 0,0c0,0.09 0,0 0,0.06l-0.22,0.1l-0.46,0.21c-0.3,0.15 -0.63,0.27 -0.92,0.4c-0.6,0.25 -1.23,0.41 -1.83,0.7c-1.21,0.592 -2.277,1.438 -3.13,2.48l-0.12,-0.05Z" style="fill:#010101;fill-rule:nonzero;" />
    <path d="M248.06,90.07c-0.84,3.12 -4.39,4.88 -5.58,7.86c-1.19,2.98 -0.07,7.14 -1.64,10c0.83,-3.12 -0.49,-7.37 0.7,-10.34c1.19,-2.97 4.95,-4.7 6.52,-7.52Z" style="fill:#010101;fill-rule:nonzero;" />
    <path d="M216.3,109.56c-1.116,1.067 -2.084,2.278 -2.88,3.6c-0.761,1.171 -0.882,2.651 -0.32,3.93c0.55,1.13 1.94,1.75 3.27,2.86c1.198,1.123 2.229,2.413 3.06,3.83c1.64,2.6 3.54,5 5.31,7.7c0.908,1.43 1.313,3.124 1.15,4.81c-0.325,1.522 -0.373,3.091 -0.14,4.63c-0.79,-1.42 -0.6,-3.15 -0.73,-4.64c-0.054,-1.45 -0.557,-2.848 -1.44,-4c-1.89,-2.38 -3.93,-4.84 -5.65,-7.51c-0.726,-1.298 -1.628,-2.489 -2.68,-3.54c-0.5,-0.49 -1.13,-0.92 -1.77,-1.45c-0.724,-0.548 -1.293,-1.275 -1.65,-2.11c-0.326,-0.847 -0.402,-1.771 -0.22,-2.66c0.188,-0.836 0.557,-1.621 1.08,-2.3c1.022,-1.241 2.242,-2.306 3.61,-3.15Z" style="fill:#010101;fill-rule:nonzero;" />
  </g>
</svg>
