<?xml version="1.0" encoding="utf-8"?>
<!-- Generator: Adobe Illustrator 17.0.0, SVG Export Plug-In . SVG Version: 6.00 Build 0)  -->
<!DOCTYPE svg PUBLIC "-//W3C//DTD SVG 1.1//EN" "http://www.w3.org/Graphics/SVG/1.1/DTD/svg11.dtd">
<svg version="1.1" id="svg2" xmlns:svg="http://www.w3.org/2000/svg"
	 xmlns="http://www.w3.org/2000/svg" xmlns:xlink="http://www.w3.org/1999/xlink" x="0px" y="0px" width="50.137px" height="48px"
	 viewBox="3.129 2.906 50.137 48" enable-background="new 3.129 2.906 50.137 48" xml:space="preserve">
<g id="layer2">
	<path id="path3237" d="M16.754,32.759V21.451h2.25v11.308H16.754"/>
	<path id="path3235" d="M21.125,21.451h2.376v6.124c0,0.972,0.029,1.602,0.088,1.89c0.102,0.463,0.342,0.836,0.722,1.118
		c0.385,0.278,0.91,0.417,1.573,0.417c0.674,0,1.183-0.131,1.525-0.393c0.342-0.267,0.548-0.594,0.618-0.98
		c0.07-0.386,0.104-1.026,0.104-1.921v-6.256h2.376v5.939c0,1.358-0.064,2.317-0.193,2.877c-0.128,0.561-0.367,1.034-0.714,1.419
		c-0.342,0.386-0.803,0.694-1.381,0.926c-0.578,0.226-1.332,0.339-2.264,0.339c-1.124,0-1.977-0.123-2.561-0.37
		c-0.578-0.252-1.035-0.576-1.373-0.972c-0.337-0.401-0.559-0.82-0.666-1.257c-0.155-0.648-0.233-1.604-0.233-2.869V21.451"/>
	<path id="path3233" d="M31.936,27.175c0-1.152,0.17-2.119,0.509-2.9c0.253-0.576,0.598-1.093,1.034-1.55
		c0.441-0.458,0.922-0.797,1.444-1.018c0.694-0.298,1.495-0.447,2.402-0.447c1.642,0,2.955,0.517,3.938,1.55
		c0.64,0.669,1.072,1.507,1.298,2.514l-2.359,0.025c-0.141-0.474-0.349-0.868-0.627-1.182c-0.558-0.638-1.3-0.956-2.228-0.956
		c-0.928,0-1.675,0.324-2.243,0.972c-0.568,0.643-0.851,1.615-0.851,2.916 M34.255,27.098c0,1.28,0.291,2.252,0.874,2.916
		c0.583,0.658,1.323,0.987,2.22,0.987c0.897,0,1.632-0.327,2.205-0.98c0.319-0.363,0.55-0.826,0.693-1.389l2.363,0.052
		c-0.208,1.099-0.651,2.007-1.33,2.725c-0.978,1.028-2.286,1.543-3.923,1.543c-1.657,0-2.975-0.512-3.953-1.535
		c-0.978-1.028-1.467-2.443-1.467-4.242"/>
	<path id="text2454" d="M43.991,32.759V21.451h2.018l5.159,7.83v-7.83h2.099v11.308H51.3l-5.307-7.932l0.22,7.932H43.991"/>
	
		<radialGradient id="path3244_1_" cx="76.6054" cy="228.1593" r="22.5662" gradientTransform="matrix(1.4273 0 0 -1.7822 -96.7068 415.6446)" gradientUnits="userSpaceOnUse">
		<stop  offset="0" style="stop-color:#F0F4F7"/>
		<stop  offset="0.5" style="stop-color:#0EBFE4"/>
		<stop  offset="1" style="stop-color:#1E3A6B"/>
	</radialGradient>
	<path id="path3244" fill="url(#path3244_1_)" d="M40.558,38.986l7.323-0.021c-4.16,7.139-11.898,11.94-20.751,11.94
		c-13.248,0-24-10.752-24-24s10.752-24,24-24c9.002,0,16.852,4.965,20.959,12.304l-7.208-0.017
		c-3.314-3.886-8.246-6.352-13.75-6.352c-9.972,0-18.065,8.093-18.065,18.065s8.093,18.065,18.065,18.065
		C32.458,44.971,37.25,42.66,40.558,38.986z"/>
</g>
</svg>
