<?xml version="1.0" encoding="utf-8"?>
<!-- Generator: Adobe Illustrator 17.0.0, SVG Export Plug-In . SVG Version: 6.00 Build 0)  -->
<!DOCTYPE svg PUBLIC "-//W3C//DTD SVG 1.1//EN" "http://www.w3.org/Graphics/SVG/1.1/DTD/svg11.dtd">
<svg version="1.1" id="brand" xmlns:svg="http://www.w3.org/2000/svg"
	 xmlns="http://www.w3.org/2000/svg" xmlns:xlink="http://www.w3.org/1999/xlink" x="0px" y="0px" width="33.4px" height="32px"
	 viewBox="3.1 2.9 33.4 32" style="enable-background:new 3.1 2.9 33.4 32;" xml:space="preserve">
<style type="text/css">
	.st0{fill:url(#path3244_1_);}
</style>
<g id="group">
	<path id="path3237" d="M12.2,22.8v-7.5h1.5v7.5H12.2"/>
	<path id="path3235" d="M15.1,15.3h1.6v4.1c0,0.6,0,1.1,0.1,1.3c0.1,0.3,0.2,0.6,0.5,0.7c0.3,0.2,0.6,0.3,1,0.3c0.4,0,0.8-0.1,1-0.3
		c0.2-0.2,0.4-0.4,0.4-0.7c0-0.3,0.1-0.7,0.1-1.3v-4.2h1.6v4c0,0.9,0,1.5-0.1,1.9c-0.1,0.4-0.2,0.7-0.5,0.9
		c-0.2,0.3-0.5,0.5-0.9,0.6c-0.4,0.2-0.9,0.2-1.5,0.2c-0.7,0-1.3-0.1-1.7-0.2c-0.4-0.2-0.7-0.4-0.9-0.6c-0.2-0.3-0.4-0.5-0.4-0.8
		c-0.1-0.4-0.2-1.1-0.2-1.9V15.3"/>
	<path id="path3233" d="M22.3,19.1c0-0.8,0.1-1.4,0.3-1.9c0.2-0.4,0.4-0.7,0.7-1c0.3-0.3,0.6-0.5,1-0.7c0.5-0.2,1-0.3,1.6-0.3
		c1.1,0,2,0.3,2.6,1c0.4,0.4,0.7,1,0.9,1.7l-1.6,0c-0.1-0.3-0.2-0.6-0.4-0.8c-0.4-0.4-0.9-0.6-1.5-0.6c-0.6,0-1.1,0.2-1.5,0.6
		c-0.4,0.4-0.6,1.1-0.6,1.9 M23.9,19c0,0.9,0.2,1.5,0.6,1.9c0.4,0.4,0.9,0.7,1.5,0.7c0.6,0,1.1-0.2,1.5-0.7c0.2-0.2,0.4-0.6,0.5-0.9
		l1.6,0c-0.1,0.7-0.4,1.3-0.9,1.8c-0.7,0.7-1.5,1-2.6,1c-1.1,0-2-0.3-2.6-1c-0.7-0.7-1-1.6-1-2.8"/>
	<path id="text2454" d="M30.4,22.8v-7.5h1.3l3.4,5.2v-5.2h1.4v7.5h-1.3l-3.5-5.3l0.1,5.3H30.4"/>
	
		<radialGradient id="path3244_1_" cx="363.1296" cy="-6.2952" r="65.0067" gradientTransform="matrix(0.3303 0 0 -0.4124 -110.4823 4.3867)" gradientUnits="userSpaceOnUse">
		<stop  offset="0" style="stop-color:#F0F4F7"/>
		<stop  offset="0.5" style="stop-color:#0EBFE4"/>
		<stop  offset="1" style="stop-color:#1E3A6B"/>
	</radialGradient>
	<path id="path3244" class="st0" d="M28.1,27l4.9,0c-2.8,4.8-7.9,8-13.8,8c-8.8,0-16-7.2-16-16s7.2-16,16-16c6,0,11.2,3.3,14,8.2
		l-4.8,0c-2.2-2.6-5.5-4.2-9.2-4.2c-6.6,0-12,5.4-12,12s5.4,12,12,12C22.7,30.9,25.9,29.4,28.1,27z"/>
</g>
</svg>
