<?xml version="1.0" encoding="utf-8"?>
<!-- Generator: Adobe Illustrator 17.0.0, SVG Export Plug-In . SVG Version: 6.00 Build 0)  -->
<!DOCTYPE svg PUBLIC "-//W3C//DTD SVG 1.1//EN" "http://www.w3.org/Graphics/SVG/1.1/DTD/svg11.dtd">
<svg version="1.1" id="svg2" xmlns:svg="http://www.w3.org/2000/svg"
	 xmlns="http://www.w3.org/2000/svg" xmlns:xlink="http://www.w3.org/1999/xlink" x="0px" y="0px" width="43.87px" height="42px"
	 viewBox="3.129 2.906 43.87 42" enable-background="new 3.129 2.906 43.87 42" xml:space="preserve">
<g id="layer2">
	<path id="path3237" d="M15.051,29.027v-9.894h1.969v9.894H15.051"/>
	<path id="path3235" d="M18.876,19.133h2.079v5.359c0,0.85,0.026,1.402,0.077,1.654c0.089,0.405,0.3,0.731,0.632,0.979
		c0.337,0.243,0.796,0.364,1.377,0.364c0.59,0,1.035-0.115,1.334-0.344c0.3-0.234,0.48-0.52,0.541-0.857
		c0.061-0.337,0.091-0.898,0.091-1.681v-5.474h2.079v5.197c0,1.188-0.056,2.027-0.169,2.517c-0.112,0.49-0.321,0.904-0.625,1.242
		c-0.3,0.337-0.702,0.607-1.208,0.81c-0.506,0.198-1.166,0.297-1.981,0.297c-0.983,0-1.73-0.108-2.24-0.324
		c-0.506-0.22-0.906-0.504-1.201-0.85c-0.295-0.351-0.489-0.718-0.583-1.1c-0.136-0.567-0.204-1.404-0.204-2.511V19.133"/>
	<path id="path3233" d="M28.335,24.141c0-1.008,0.149-1.854,0.446-2.538c0.222-0.504,0.523-0.956,0.905-1.357
		c0.386-0.4,0.807-0.697,1.264-0.891c0.608-0.261,1.308-0.391,2.102-0.391c1.437,0,2.585,0.452,3.446,1.357
		c0.56,0.585,0.938,1.319,1.136,2.2l-2.064,0.022c-0.123-0.415-0.306-0.759-0.548-1.034c-0.488-0.558-1.138-0.837-1.949-0.837
		c-0.812,0-1.466,0.283-1.962,0.85c-0.497,0.562-0.745,1.413-0.745,2.551 M30.364,24.074c0,1.12,0.255,1.971,0.765,2.551
		c0.51,0.576,1.157,0.864,1.942,0.864c0.785,0,1.428-0.286,1.929-0.857c0.279-0.318,0.481-0.723,0.606-1.215l2.068,0.046
		c-0.182,0.962-0.57,1.756-1.164,2.384c-0.856,0.9-2,1.35-3.433,1.35c-1.45,0-2.603-0.448-3.459-1.343
		c-0.856-0.9-1.284-2.137-1.284-3.712"/>
	<path id="text2454" d="M38.883,29.027v-9.894h1.766l4.514,6.852v-6.852h1.836v9.894h-1.721l-4.643-6.94l0.193,6.94H38.883"/>
	
		<radialGradient id="path3244_1_" cx="75.773" cy="228.5883" r="19.7454" gradientTransform="matrix(1.4273 0 0 -1.7822 -96.7068 415.6446)" gradientUnits="userSpaceOnUse">
		<stop  offset="0" style="stop-color:#F0F4F7"/>
		<stop  offset="0.5" style="stop-color:#0EBFE4"/>
		<stop  offset="1" style="stop-color:#1E3A6B"/>
	</radialGradient>
	<path id="path3244" fill="url(#path3244_1_)" d="M35.879,34.476l6.407-0.018c-3.64,6.246-10.411,10.447-18.157,10.447
		c-11.592,0-21-9.408-21-21s9.408-21,21-21c7.877,0,14.745,4.344,18.339,10.766l-6.307-0.015c-2.9-3.401-7.215-5.558-12.032-5.558
		c-8.726,0-15.807,7.082-15.807,15.807s7.082,15.807,15.807,15.807C28.792,39.713,32.985,37.691,35.879,34.476z"/>
</g>
</svg>
