<?xml version="1.0" encoding="utf-8"?>
<!-- Generator: Adobe Illustrator 17.0.0, SVG Export Plug-In . SVG Version: 6.00 Build 0)  -->
<!DOCTYPE svg PUBLIC "-//W3C//DTD SVG 1.1//EN" "http://www.w3.org/Graphics/SVG/1.1/DTD/svg11.dtd">
<svg version="1.1" id="svg2" xmlns:svg="http://www.w3.org/2000/svg"
	 xmlns="http://www.w3.org/2000/svg" xmlns:xlink="http://www.w3.org/1999/xlink" x="0px" y="0px" width="66.849px" height="64px"
	 viewBox="3.129 2.906 66.849 64" enable-background="new 3.129 2.906 66.849 64" xml:space="preserve">
<g id="layer2">
	<path id="path3237" d="M21.295,42.71V27.633h3V42.71H21.295"/>
	<path id="path3235" d="M27.124,27.633h3.168v8.166c0,1.296,0.039,2.136,0.118,2.52c0.136,0.617,0.457,1.114,0.963,1.491
		c0.514,0.37,1.213,0.555,2.098,0.555c0.899,0,1.577-0.175,2.033-0.525c0.457-0.357,0.731-0.792,0.824-1.306
		c0.093-0.514,0.139-1.368,0.139-2.561v-8.341h3.168v7.919c0,1.81-0.086,3.089-0.257,3.836c-0.171,0.747-0.489,1.378-0.953,1.892
		c-0.457,0.514-1.07,0.926-1.841,1.234c-0.771,0.302-1.777,0.453-3.018,0.453c-1.498,0-2.636-0.165-3.414-0.494
		c-0.771-0.336-1.381-0.768-1.83-1.296c-0.449-0.535-0.746-1.094-0.888-1.676c-0.207-0.864-0.31-2.139-0.31-3.826V27.633"/>
	<path id="path3233" d="M41.538,35.264c0-1.536,0.226-2.825,0.679-3.867c0.338-0.768,0.797-1.457,1.379-2.067
		c0.588-0.61,1.23-1.063,1.926-1.358c0.926-0.398,1.994-0.596,3.203-0.597c2.19,0,3.94,0.689,5.251,2.067
		c0.853,0.892,1.43,2.01,1.731,3.353l-3.146,0.033c-0.187-0.632-0.466-1.157-0.835-1.576c-0.743-0.85-1.733-1.275-2.97-1.275
		c-1.237,0-2.233,0.432-2.99,1.296c-0.757,0.857-1.135,2.153-1.135,3.888 M44.63,35.162c0,1.707,0.389,3.003,1.166,3.888
		c0.777,0.878,1.764,1.316,2.96,1.316c1.196,0,2.176-0.436,2.94-1.306c0.425-0.485,0.733-1.102,0.924-1.852l3.151,0.07
		c-0.277,1.465-0.868,2.676-1.773,3.633c-1.304,1.371-3.048,2.057-5.231,2.057c-2.21,0-3.967-0.682-5.271-2.047
		c-1.304-1.371-1.956-3.257-1.956-5.657"/>
	<path id="text2454" d="M57.611,42.71V27.633h2.69l6.879,10.441V27.633h2.798V42.71h-2.622l-7.076-10.576l0.294,10.576H57.611"/>
	
		<radialGradient id="path3244_1_" cx="89.1296" cy="221.7048" r="65.0067" gradientTransform="matrix(0.6606 0 0 -0.8249 -43.0796 193.941)" gradientUnits="userSpaceOnUse">
		<stop  offset="0" style="stop-color:#F0F4F7"/>
		<stop  offset="0.5" style="stop-color:#0EBFE4"/>
		<stop  offset="1" style="stop-color:#1E3A6B"/>
	</radialGradient>
	<path id="path3244" fill="url(#path3244_1_)" d="M53.034,51.013l9.764-0.027c-5.547,9.518-15.864,15.92-27.668,15.92
		c-17.664,0-32-14.336-32-32s14.336-32,32-32c12.003,0,22.469,6.62,27.945,16.405l-9.611-0.022
		c-4.419-5.182-10.995-8.47-18.334-8.47c-13.296,0-24.087,10.791-24.087,24.087s10.791,24.087,24.087,24.087
		C42.234,58.993,48.624,55.911,53.034,51.013z"/>
</g>
</svg>
